<?xml version="1.0" encoding="UTF-8" standalone="no"?>
<!-- Created with Inkscape (http://www.inkscape.org/) -->

<svg
   xmlns:dc="http://purl.org/dc/elements/1.1/"
   xmlns:cc="http://creativecommons.org/ns#"
   xmlns:rdf="http://www.w3.org/1999/02/22-rdf-syntax-ns#"
   xmlns:svg="http://www.w3.org/2000/svg"
   xmlns="http://www.w3.org/2000/svg"
   xmlns:xlink="http://www.w3.org/1999/xlink"
   xmlns:sodipodi="http://sodipodi.sourceforge.net/DTD/sodipodi-0.dtd"
   xmlns:inkscape="http://www.inkscape.org/namespaces/inkscape"
   width="279.26562"
   height="378.66473"
   id="svg3322"
   version="1.1"
   inkscape:version="0.92.1 r15371"
   sodipodi:docname="icon.svg">
  <defs
     id="defs3324">
    <clipPath
       id="clip_color-8">
      <path
         inkscape:connector-curvature="0"
         id="path3580"
         d="M 0,0 -11,-11 V 11 L 0,0 v -11 h 11 z" />
    </clipPath>
    <clipPath
       id="clipPath3658">
      <path
         inkscape:connector-curvature="0"
         id="path3660"
         d="M 0,0 -11,-11 V 11 L 0,0 v -11 h 11 z" />
    </clipPath>
  </defs>
  <sodipodi:namedview
     id="base"
     pagecolor="#ffffff"
     bordercolor="#666666"
     borderopacity="1.0"
     inkscape:pageopacity="0.0"
     inkscape:pageshadow="2"
     inkscape:zoom="0.82409616"
     inkscape:cx="88.846378"
     inkscape:cy="216.93204"
     inkscape:document-units="px"
     inkscape:current-layer="layer1"
     showgrid="false"
     inkscape:window-width="1920"
     inkscape:window-height="1016"
     inkscape:window-x="0"
     inkscape:window-y="0"
     inkscape:window-maximized="1"
     fit-margin-top="0"
     fit-margin-left="0"
     fit-margin-right="0"
     fit-margin-bottom="0" />
  <metadata
     id="metadata3327">
    <rdf:RDF>
      <cc:Work
         rdf:about="">
        <dc:format>image/svg+xml</dc:format>
        <dc:type
           rdf:resource="http://purl.org/dc/dcmitype/StillImage" />
        <dc:title></dc:title>
      </cc:Work>
    </rdf:RDF>
  </metadata>
  <g
     inkscape:label="Layer 1"
     inkscape:groupmode="layer"
     id="layer1"
     transform="translate(-1395.2982,-215.76336)">
    <path
       style="color:#000000;font-style:normal;font-variant:normal;font-weight:normal;font-stretch:normal;font-size:medium;line-height:normal;font-family:Sans;-inkscape-font-specification:Sans;text-indent:0;text-align:start;text-decoration:none;text-decoration-line:none;letter-spacing:normal;word-spacing:normal;text-transform:none;writing-mode:lr-tb;direction:ltr;baseline-shift:baseline;text-anchor:start;display:inline;overflow:visible;visibility:visible;fill:#000000;fill-opacity:1;stroke:none;stroke-width:2;marker:none;enable-background:accumulate"
       d="m 190.125,24.9375 c -16.166,0 -29.25,12.93525 -29.25,28.90625 0,15.972 13.084,28.9375 29.25,28.9375 16.166,0 29.28125,-12.9665 29.28125,-28.9375 0,-15.972 -13.11525,-28.90625 -29.28125,-28.90625 z M 62.28125,87.625 l 101.75,30.65625 c 1.746,3.741 14.1931,28.191 16.4375,54.375 l 79.75,-4 C 258.51075,156.48325 235.883,103.6435 222.375,88.0625 Z m 117.5625,90.5 -27.25,175.09375 62.59375,-115.1875 27.5625,115.625 16.65625,-173.09375 z M 21.6875,215.90625 c -3.158381,0.15533 -5.592828,2.84162 -5.437498,6 0.155331,3.15838 2.841617,5.59283 5.999998,5.4375 h 0.40625 l 22.75,123.5625 c 0.3232,1.72795 1.835856,2.97753 3.59375,2.96875 h 59.28125 c 1.87286,0.003 3.44154,-1.4174 3.625,-3.28125 L 123.84375,229.5 c 3.88722,0.0155 6.65731,-3.76766 5.46875,-7.46875 L 129.03125,220.25 c 0,0 -1.375,-2.24998 -1.375,-2.25 -1e-4,-5e-5 -1.4999,-1.09365 -1.5,-1.09375 -4e-4,-1.9e-4 -0.9638,-0.38234 -1.1875,-0.4375 -0.4473,-0.11032 -0.58755,-0.10935 -0.71875,-0.125 -0.2623,-0.0313 -0.37185,-0.0223 -0.53125,-0.0312 -0.3187,-0.0177 -0.7405,-0.0429 -1.5625,-0.0625 -1.6441,-0.0392 -4.8385,-0.0745 -11.1875,-0.125 -12.6979,-0.10102 -38.04075,-0.21875 -88.71875,-0.21875 -0.187387,-0.009 -0.375113,-0.009 -0.5625,0 z m 8.34375,11.4375 c 6.351727,0.002 10.218022,0.0256 15.71875,0.0312 l 1.8125,14.8125 H 32.78125 Z M 52.25,227.375 c 6.050033,0.008 13.397588,0.0196 18.40625,0.0312 L 71.125,242.1875 H 54.0625 Z m 24.875,0.0312 c 7.897971,0.0215 12.390077,0.0358 17.78125,0.0625 l -0.5625,14.71875 h -16.75 z m 24.25,0.0937 c 2.68372,0.0163 7.50116,0.0466 9.5,0.0625 3.35675,0.0267 4.36363,0.0437 5.84375,0.0625 l -1.4375,14.5625 h -14.4375 z M 33.96875,248.65625 H 48.375 l 1.9375,15.6875 H 36.84375 Z m 20.90625,0 h 16.46875 l 0.5,15.6875 H 56.8125 Z m 22.9375,0 H 94.09375 L 93.5,264.34375 H 78.3125 Z m 22.78125,0 h 14.0625 l -1.5625,15.6875 H 100 Z M 38.0625,270.8125 H 51.125 L 52.8125,284.5 H 40.59375 Z m 19.5625,0 H 72.03125 L 72.46875,284.5 H 59.3125 Z m 20.90625,0 H 93.25 L 92.75,284.5 H 78.96875 Z m 21.21875,0 h 12.71875 L 111.125,284.5 H 99.21875 Z m -57.96875,20.15625 h 11.8125 l 1.71875,13.75 c -3.567999,-0.006 -6.963451,-0.03 -11,-0.0312 z m 18.34375,0 H 72.6875 L 73.125,304.75 c -3.545454,-0.0163 -7.081266,-0.0209 -11.3125,-0.0312 z m 19.03125,0 H 92.5 L 91.96875,304.875 c -3.491549,-0.0394 -7.54448,-0.064 -12.375,-0.0937 z m 19.8125,0 h 11.5 L 109.0625,305.25 c -1.33599,-0.0659 -3.055,-0.12519 -5.78125,-0.1875 -1.27268,-0.0291 -3.18276,-0.0663 -4.84375,-0.0937 z M 45.5,311.125 c 3.839433,0.002 7.187986,0.0245 10.59375,0.0312 L 58,326.4375 h -9.6875 z m 17.125,0.0312 c 4.032927,0.012 7.32175,0.0132 10.71875,0.0312 l 0.46875,15.25 H 64.5 Z m 17.1875,0.0937 c 4.652887,0.0327 8.51675,0.0526 11.90625,0.0937 L 91.125,326.4375 H 80.28125 Z m 18.375,0.1875 c 1.705388,0.0291 3.64503,0.0642 4.9375,0.0937 2.38333,0.0545 4.03716,0.0723 5.28125,0.125 L 106.9375,326.4375 H 97.625 Z M 49.5,332.90625 h 9.3125 L 60.5,346.59375 H 52 Z m 15.8125,0 h 8.71875 l 0.4375,13.6875 H 67 Z m 15.1875,0 h 10.40625 l -0.53125,13.6875 h -9.4375 z m 16.875,0 h 8.9375 l -1.34375,13.6875 h -8.125 z"
       transform="translate(1395.2982,215.76336)"
       id="path4284"
       inkscape:connector-curvature="0"
       sodipodi:nodetypes="ssssscccccccccccccsccccccccccccccccccccccccccccccccccccccccccccccccccccccccccccccccccccccccccccccccccccccccccccccccccccccccccccccccccccccccccccccccccccccccccccc" />
    <text
       xml:space="preserve"
       style="font-style:normal;font-weight:normal;font-size:40px;line-height:125%;font-family:sans-serif;letter-spacing:0px;word-spacing:0px;fill:#000000;fill-opacity:1;stroke:none;stroke-width:1px;stroke-linecap:butt;stroke-linejoin:miter;stroke-opacity:1"
       x="960.1629"
       y="1158.6136"
       id="text4489"
       transform="rotate(-36.479312)"><tspan
         sodipodi:role="line"
         id="tspan4487"
         x="960.1629"
         y="1158.6136">☑</tspan></text>
    <use
       x="0"
       y="0"
       xlink:href="#text4489"
       id="use4491"
       inkscape:transform-center-x="-73.319325"
       inkscape:transform-center-y="-41.844858"
       width="100%"
       height="100%"
       transform="rotate(78.720646,1454.6279,369.77289)" />
    <use
       x="0"
       y="0"
       xlink:href="#use4491"
       inkscape:transform-center-x="26.695914"
       inkscape:transform-center-y="-80.087741"
       id="use4493"
       transform="translate(-46.111123,27.909363)"
       width="100%"
       height="100%" />
  </g>
</svg>
